<?xml version="1.0"?>
<svg width="640" height="480" xmlns="http://www.w3.org/2000/svg" xmlns:svg="http://www.w3.org/2000/svg">
 <!-- Created with SVG-edit - http://svg-edit.googlecode.com/ -->
 <g>
  <title>Layer 1</title>
  <path transform="rotate(59.81272888183594 405.7557373046875,256.77081298828125) " d="m411,223c0,2.00534 0,2.74933 0,3.8575c0,0.82916 0,1.90666 0,2.505c0,0.9975 0,1.67084 0,2.87084c0,0.78749 0,1.61999 0,2.63099c0,0.80268 0,1.67734 0,2.13167c0,0.92267 0,2.28267 0,3.15134c0,0.85266 0,1.70532 0,2.13666c0,1.33734 0,2.26867 0,3.216c0,0.47467 0,1.416 0,2.778c0,0.85133 0,1.63867 0,2.34599c0,1.112 0,1.87601 0,2.87601c0,0.867 0,1.54167 0,2.25633c0,1.42235 0,2.09099 0,3.06902c0,0.65866 0,1.69565 0,2.4183c0,1.05902 0,1.70169 0,2.89386c0,0.82916 0.05405,1.88004 -0.07199,2.64783c-0.17499,1.06582 -0.62497,1.76718 -1.11334,2.40399c-0.6316,0.82352 -1.1149,1.37619 -1.45301,2.1535c-0.38125,0.8765 -0.53024,1.82309 -0.78698,2.49317c-0.29291,0.76446 -0.4144,1.80423 -0.74167,2.56399c-0.37256,0.86484 -1.12268,1.37329 -1.775,1.94284c-0.7088,0.6189 -1.03918,1.46711 -1.05935,2.42517c-0.01541,0.73209 0.01788,1.50086 -0.43467,2.59198c-0.30026,0.72391 -0.76736,1.69095 -0.96398,2.31601c-0.2035,0.64692 -0.60001,1.82401 -0.98935,2.616l-0.48932,0.80802l-0.20536,0.69998l-0.41598,0.74167" id="svg_8" stroke-linecap="null" stroke-linejoin="null" stroke-dasharray="null" stroke-width="0" stroke="#ff0000" fill="none"/>
  <circle stroke="#5fbf00" id="svg_1" r="75.901001" cy="92.999996" cx="95.499999" stroke-width="5" fill="#000000"/>
  <text stroke="#ff0000" transform="matrix(5.226502509073043,0,0,4.678021903614422,-587.2296114669559,-988.7021778274369) " xml:space="preserve" text-anchor="middle" font-family="serif" font-size="24" id="svg_7" y="241.688982" x="134.964033" stroke-linecap="null" stroke-linejoin="null" stroke-dasharray="null" stroke-width="0" fill="#5fbf00" font-weight="bold">f</text>
  <text stroke="#5fbf00" transform="matrix(5.495781605047128,0,0,6.189807691351118,-476.4508399958827,-1538.5733370970809) " xml:space="preserve" text-anchor="middle" font-family="serif" font-size="24" id="svg_6" y="268.198214" x="99.519415" stroke-linecap="null" stroke-linejoin="null" stroke-dasharray="null" stroke-width="0" fill="#5fbf00" font-weight="bold">a</text>
 </g>
</svg>